<svg width="114" height="60" viewBox="0 0 114 60" fill="none" xmlns="http://www.w3.org/2000/svg">
<path d="M94.7513 57.9591C102.537 57.9591 108.849 51.6241 108.849 43.8095C108.849 35.9948 102.537 29.6598 94.7513 29.6598C86.9655 29.6598 80.6538 35.9948 80.6538 43.8095C80.6538 51.6241 86.9655 57.9591 94.7513 57.9591Z" stroke="#fff" stroke-width="3" stroke-miterlimit="10" stroke-linecap="round" stroke-linejoin="round"/>
<path d="M26.7039 57.9591C34.4898 57.9591 40.8015 51.6241 40.8015 43.8095C40.8015 35.9948 34.4898 29.6598 26.7039 29.6598C18.9181 29.6598 12.6064 35.9948 12.6064 43.8095C12.6064 51.6241 18.9181 57.9591 26.7039 57.9591Z" stroke="#fff" stroke-width="3" stroke-miterlimit="10" stroke-linecap="round" stroke-linejoin="round"/>
<path d="M106.68 18.9115L84.9916 16.0544L82.4161 6.66662C81.6028 3.94553 79.1628 2.04077 76.3162 2.04077H44.7324V16.0544H2.0332V32.653C2.0332 35.2381 4.20205 37.4149 6.77756 37.4149H14.233C16.5374 32.7891 21.2817 29.6598 26.7038 29.6598C34.4304 29.6598 40.8013 35.9183 40.8013 43.8095C40.8013 44.4898 40.8013 45.034 40.6658 45.7142H80.7894C80.6539 45.034 80.6539 44.4898 80.6539 43.8095C80.6539 41.4966 81.1961 39.4557 82.145 37.551V37.4149H82.2805C84.5849 32.7891 89.3293 29.6598 94.7514 29.6598C100.174 29.6598 104.918 32.7891 107.222 37.4149H111.967V25.034C111.967 21.9047 109.662 19.3197 106.68 18.9115Z" stroke="#fff" stroke-width="3" stroke-miterlimit="10" stroke-linecap="round" stroke-linejoin="round"/>
<path d="M26.7038 48.5714C29.3241 48.5714 31.4482 46.4394 31.4482 43.8095C31.4482 41.1796 29.3241 39.0476 26.7038 39.0476C24.0836 39.0476 21.9595 41.1796 21.9595 43.8095C21.9595 46.4394 24.0836 48.5714 26.7038 48.5714Z" stroke="#fff" stroke-width="3" stroke-miterlimit="10" stroke-linecap="round" stroke-linejoin="round"/>
<path d="M94.7514 48.5714C97.3717 48.5714 99.4958 46.4394 99.4958 43.8095C99.4958 41.1796 97.3717 39.0476 94.7514 39.0476C92.1312 39.0476 90.0071 41.1796 90.0071 43.8095C90.0071 46.4394 92.1312 48.5714 94.7514 48.5714Z" stroke="#fff" stroke-width="3" stroke-miterlimit="10" stroke-linecap="round" stroke-linejoin="round"/>
<path d="M52.3232 16.0543H76.1806" stroke="#fff" stroke-width="3" stroke-miterlimit="10" stroke-linecap="round" stroke-linejoin="round"/>
</svg>
