<svg width="170" height="49" viewBox="0 0 170 49" fill="none" xmlns="http://www.w3.org/2000/svg">
<g clip-path="url(#clip0_59_111)">
<path d="M27.2251 3.50891H1.88196" stroke="#fff" stroke-width="3" stroke-miterlimit="10" stroke-linecap="round" stroke-linejoin="round"/>
<path d="M64.6126 3.50891H39.2694" stroke="#fff" stroke-width="3" stroke-miterlimit="10" stroke-linecap="round" stroke-linejoin="round"/>
<path d="M65.9926 49C65.9926 49 65.7417 33.2097 73.3949 27.9463" stroke="#fff" stroke-width="3" stroke-miterlimit="10" stroke-linejoin="round"/>
<path d="M67.8745 23.0588L37.8893 19.6752V13.6598L67.8745 12.4066V23.0588Z" stroke="#fff" stroke-width="3" stroke-miterlimit="10" stroke-linejoin="round"/>
<path d="M34.1255 22.3069H32.369C30.738 22.3069 29.4834 21.0537 29.4834 19.4245V12.4066C29.4834 10.7775 30.738 9.52429 32.369 9.52429H34.1255C35.7565 9.52429 37.0111 10.7775 37.0111 12.4066V19.4245C37.0111 21.0537 35.631 22.3069 34.1255 22.3069Z" stroke="#fff" stroke-width="3" stroke-miterlimit="10" stroke-linejoin="round"/>
<path d="M92.9669 35.7161H76.9078V45.115H92.9669V35.7161Z" stroke="#fff" stroke-width="3" stroke-miterlimit="10" stroke-linejoin="round"/>
<path d="M84.6864 42.8593C86.0029 42.8593 87.0701 41.7933 87.0701 40.4782C87.0701 39.1632 86.0029 38.0972 84.6864 38.0972C83.3699 38.0972 82.3026 39.1632 82.3026 40.4782C82.3026 41.7933 83.3699 42.8593 84.6864 42.8593Z" fill="#fff"/>
<path d="M33.2473 1.87976V9.64958" stroke="#fff" stroke-width="3" stroke-miterlimit="10" stroke-linecap="round" stroke-linejoin="round"/>
<path d="M142.775 3.50891H168.118" stroke="#fff" stroke-width="3" stroke-miterlimit="10" stroke-linecap="round" stroke-linejoin="round"/>
<path d="M105.387 3.50891H130.731" stroke="#fff" stroke-width="3" stroke-miterlimit="10" stroke-linecap="round" stroke-linejoin="round"/>
<path d="M104.007 49C104.007 49 104.258 33.2097 96.6052 27.9463" stroke="#fff" stroke-width="3" stroke-miterlimit="10" stroke-linejoin="round"/>
<path d="M96.7307 9.64954H85.0628H73.3949C70.8857 9.64954 68.8783 11.6547 68.8783 14.161V23.4347C68.8783 25.9411 70.8857 27.9462 73.3949 27.9462H85.0628H96.7307C99.2399 27.9462 101.247 25.9411 101.247 23.4347V14.161C101.247 11.6547 99.2399 9.64954 96.7307 9.64954Z" stroke="#fff" stroke-width="3" stroke-miterlimit="10" stroke-linejoin="round"/>
<path d="M102.125 23.0588L132.111 19.6752V13.6598L102.125 12.4066V23.0588Z" stroke="#fff" stroke-width="3" stroke-miterlimit="10" stroke-linejoin="round"/>
<path d="M135.875 22.3069H137.631C139.262 22.3069 140.517 21.0537 140.517 19.4245V12.4066C140.517 10.7775 139.262 9.52429 137.631 9.52429H135.875C134.244 9.52429 132.989 10.7775 132.989 12.4066V19.4245C133.114 21.0537 134.369 22.3069 135.875 22.3069Z" stroke="#fff" stroke-width="3" stroke-miterlimit="10" stroke-linejoin="round"/>
<path d="M136.753 1.87976V9.64958" stroke="#fff" stroke-width="3" stroke-miterlimit="10" stroke-linecap="round" stroke-linejoin="round"/>
<path d="M76.155 15.9155H93.8451" stroke="#fff" stroke-width="3" stroke-miterlimit="10" stroke-linejoin="round"/>
</g>
<defs>
<clipPath id="clip0_59_111">
<rect width="170" height="49" fill="white"/>
</clipPath>
</defs>
</svg>
