<svg width="72" height="74" viewBox="0 0 72 74" fill="none" xmlns="http://www.w3.org/2000/svg">
<path d="M64.502 41.7202V71.0506" stroke="#fff" stroke-width="2.6" stroke-miterlimit="10" stroke-linecap="round" stroke-linejoin="round"/>
<path d="M48.6157 71.9393C48.6157 71.9393 48.392 71.9393 48.6157 71.9393C45.7069 71.7171 43.4694 69.4951 43.4694 66.6065C43.4694 66.3843 44.1407 50.8303 43.0219 38.6093C42.5744 34.6097 41.4556 31.4989 40.3369 29.0547C38.0994 32.6099 35.4143 35.7207 32.2818 38.6093L26.2405 43.9421C24.2267 45.7197 20.8704 45.7197 19.0804 43.7199C17.2904 41.7201 17.2904 38.3871 19.3042 36.6095L25.3455 31.2767C28.9255 28.1659 31.6105 24.1663 33.8481 19.9445L34.0718 19.2779C34.9668 17.5003 36.7568 16.1671 38.7706 15.7227C40.7844 15.2783 42.7982 15.9449 44.3644 17.5003C47.2732 20.3889 52.1957 26.6105 53.3145 37.4983C54.657 50.3859 53.9858 62.6069 53.9858 67.0509C53.762 69.7173 51.3007 71.9393 48.6157 71.9393Z" stroke="#fff" stroke-width="2.6" stroke-miterlimit="10" stroke-linecap="round" stroke-linejoin="round"/>
<path d="M2.0752 41.7201H15.7241" stroke="#fff" stroke-width="2.6" stroke-miterlimit="10" stroke-linecap="round" stroke-linejoin="round"/>
<path d="M33.624 41.7201H70.3194" stroke="#fff" stroke-width="2.6" stroke-miterlimit="10" stroke-linecap="round" stroke-linejoin="round"/>
<path d="M9.90674 41.7201V71.0505" stroke="#fff" stroke-width="2.6" stroke-miterlimit="10" stroke-linecap="round" stroke-linejoin="round"/>
<path d="M28.0304 15.5006C31.7377 15.5006 34.743 12.5161 34.743 8.83458C34.743 5.15305 31.7377 2.16858 28.0304 2.16858C24.3232 2.16858 21.3179 5.15305 21.3179 8.83458C21.3179 12.5161 24.3232 15.5006 28.0304 15.5006Z" stroke="#fff" stroke-width="2.6" stroke-miterlimit="10" stroke-linecap="round" stroke-linejoin="round"/>
</svg>
