<svg width="92" height="40" viewBox="0 0 92 40" fill="none" xmlns="http://www.w3.org/2000/svg">
<path d="M21.8074 6.59924H2.04443V26.1279H21.8074V6.59924Z" stroke="#fff" stroke-width="3" stroke-miterlimit="10" stroke-linecap="round" stroke-linejoin="round"/>
<path d="M85.1851 6.59924H74.1451V26.1279H85.1851V6.59924Z" stroke="#fff" stroke-width="3" stroke-miterlimit="10" stroke-linecap="round" stroke-linejoin="round"/>
<path d="M21.8074 4.84842V25.0504C21.8074 26.6666 23.034 27.8787 24.6696 27.8787H29.7126V35.1515C29.7126 36.7676 30.9392 37.9797 32.5748 37.9797H71.2829C72.9185 37.9797 74.1452 36.7676 74.1452 35.1515V27.8787V4.84842C74.1452 3.23226 72.9185 2.02014 71.2829 2.02014H24.6696C23.034 2.02014 21.8074 3.23226 21.8074 4.84842Z" stroke="#fff" stroke-width="3" stroke-miterlimit="10" stroke-linecap="round" stroke-linejoin="round"/>
<path d="M8.7229 6.59924V26.1279" stroke="#fff" stroke-width="3" stroke-miterlimit="10" stroke-linecap="round" stroke-linejoin="round"/>
<path d="M41.2977 2.02014V16.4309L46.7496 21.9528V37.9797" stroke="#fff" stroke-width="3" stroke-miterlimit="10" stroke-linecap="round" stroke-linejoin="round"/>
<path d="M89.9556 2.02014L85.1852 6.73395" stroke="#fff" stroke-width="3" stroke-miterlimit="10" stroke-linecap="round" stroke-linejoin="round"/>
</svg>
