<svg width="38" height="89" viewBox="0 0 38 89" fill="none" xmlns="http://www.w3.org/2000/svg">
<path d="M29.637 86.7861H6.89566C4.25474 86.7861 2.20068 84.7198 2.20068 82.063V33.6518C2.20068 30.995 4.25474 28.9287 6.89566 28.9287H31.1042C33.7451 28.9287 35.7991 30.995 35.7991 33.6518V62.5805C35.7991 63.7612 35.5057 64.942 35.0655 66.1227C34.6254 67.3035 34.332 68.4843 34.332 69.665V81.9154C34.332 84.5722 32.2779 86.7861 29.637 86.7861Z" stroke="#fff" stroke-width="3" stroke-miterlimit="10" stroke-linecap="round" stroke-linejoin="round"/>
<path d="M26.1157 60.9569H8.06934V72.4693H26.1157V60.9569Z" stroke="#fff" stroke-width="3" stroke-miterlimit="10" stroke-linecap="round" stroke-linejoin="round"/>
<path d="M8.06934 38.3749H26.1157" stroke="#fff" stroke-width="3" stroke-miterlimit="10" stroke-linecap="round" stroke-linejoin="round"/>
<path d="M8.06934 45.9022H26.1157" stroke="#fff" stroke-width="3" stroke-miterlimit="10" stroke-linecap="round" stroke-linejoin="round"/>
<path d="M10.417 23.7629V27.6004" stroke="#fff" stroke-width="3" stroke-miterlimit="10" stroke-linecap="round" stroke-linejoin="round"/>
<path d="M27.4363 28.9288V2.21399" stroke="#fff" stroke-width="3" stroke-miterlimit="10" stroke-linecap="round" stroke-linejoin="round"/>
</svg>
