<?xml version="1.0" encoding="utf-8"?>
<!-- Svg Vector Icons : http://www.onlinewebfonts.com/icon -->
<!DOCTYPE svg PUBLIC "-//W3C//DTD SVG 1.1//EN" "http://www.w3.org/Graphics/SVG/1.1/DTD/svg11.dtd">
<svg version="1.1" xmlns="http://www.w3.org/2000/svg" xmlns:xlink="http://www.w3.org/1999/xlink" x="0px" y="0px" viewBox="0 0 1000 1000" enable-background="new 0 0 1000 1000" xml:space="preserve">
<metadata> Svg Vector Icons : http://www.onlinewebfonts.com/icon </metadata>
<g><g transform="translate(0.000000,511.000000) scale(0.100000,-0.100000)"><path d="M4414.3,4982.3C2772.5,4782.9,1359.2,3785.9,615.8,2302.9C-1.8,1073.5-67.7-403.7,433.8-1675.7c669.9-1694,2197.4-2869.2,4001.8-3080.2c1322.3-154.9,2679.5,247.8,3701.7,1099.6C9641.6-2399.8,10249.5-396,9701.6,1505.2c-240.1,836.4-758.9,1663.1-1409.4,2241.9C7512,4446.1,6590.4,4862.3,5566.2,4982.3C5270,5017.2,4704.7,5017.2,4414.3,4982.3z M5498.5,3995c1492.7-193.6,2753.1-1235.2,3219.6-2658.2C9326-523.8,8474.2-2541.1,6714.3-3402.6c-1322.3-646.6-2880.8-495.6-4071.5,393c-199.4,149.1-538.2,480.1-700.8,683.4c-1138.4,1428.8-1138.4,3452,0,4878.8c151,187.8,472.4,507.2,658.3,652.5c530.5,414.3,1206.1,697,1878,788C4753.1,4029.8,5219.7,4029.8,5498.5,3995z"/><path d="M4503.3,2912.7c-274.9-52.3-474.3-139.4-679.5-292.3c-125.8-94.9-333-321.4-333-365.9c0-42.6,480.1-505.3,530.5-511.1c38.7-5.8,60,15.5,118.1,100.7c154.9,234.3,412.4,360.1,735.7,360.1c398.8,0,704.7-168.4,838.3-460.8c71.6-158.8,81.3-445.3,19.4-623.4l-44.5-125.8l-1579.8-9.7c-1299.1-7.7-1585.6-13.6-1610.8-36.8c-27.1-21.3-32.9-65.8-32.9-243.9c0-185.9,5.8-224.6,36.8-263.3l36.8-46.5l995.1-9.7c546-5.8,979.6-11.6,962.2-15.5c-17.4-1.9-116.2-46.5-222.6-96.8C4087.1,179,3806.4-22.3,3758-99.8c-23.2-36.8-46.5-38.7-615.7-38.7c-503.4,0-598.2-3.9-635-31c-40.7-27.1-42.6-44.6-42.6-251.7c0-220.7,0-224.6,56.1-280.7L2577-758h433.7h433.7L3425-936.1c-46.5-451.1,81.3-896.4,346.5-1213.9c193.6-232.3,513.1-422.1,851.9-509.2c234.3-58.1,712.5-63.9,948.7-7.7c309.8,71.6,592.4,214.9,795.7,402.7c102.6,94.9,259.4,305.9,259.4,350.4c0,27.1-449.2,466.6-515,503.4c-46.5,27.1-77.4,3.9-149.1-106.5c-244-379.5-743.4-553.7-1184.9-414.3c-257.5,81.3-437.5,230.4-546,455c-50.3,100.7-54.2,125.8-54.2,340.7c0,176.2,7.7,249.8,32.9,305.9l32.9,71.6h1605c1353.3,0,1608.9,3.9,1641.8,27.1c32.9,25.2,36.8,58.1,42.6,269.1c5.8,154.9,0,255.6-13.6,282.7c-23.2,40.7-23.2,40.7-1053.2,42.6h-1030l203.3,100.7c243.9,120,346.5,189.7,474.3,321.4l94.9,98.7h633.1c563.4,0,635,3.9,658.3,32.9c34.9,40.6,50.4,468.5,17.4,526.6c-19.4,38.7-32.9,40.7-524.7,40.7h-505.3l15.5,83.2c7.8,44.5,13.6,182,11.6,304c-1.9,478.2-147.1,826.7-470.4,1132.6c-180.1,168.4-447.2,311.7-704.7,379.5C5140.3,2935.9,4706.6,2951.4,4503.3,2912.7z"/></g></g>
</svg>